<svg width="25" height="25" viewBox="0 0 25 25" fill="none" xmlns="http://www.w3.org/2000/svg">
<path d="M5.67626 10.629C5.67501 9.73987 5.84969 8.85926 6.19023 8.03791C6.53076 7.21656 7.03043 6.4707 7.66046 5.84329C8.29049 5.21588 9.03842 4.71931 9.86118 4.38219C10.6839 4.04507 11.5653 3.87406 12.4544 3.87901C16.1669 3.90714 19.1388 6.99151 19.1388 10.7134V11.379C19.1388 14.7353 19.8419 16.6853 20.4606 17.754C20.5264 17.8678 20.561 17.9969 20.5611 18.1284C20.5612 18.2598 20.5268 18.3889 20.4613 18.5029C20.3958 18.6168 20.3015 18.7115 20.1878 18.7775C20.0742 18.8436 19.9452 18.8785 19.8138 18.879H5.00126C4.86984 18.8785 4.74084 18.8436 4.62719 18.7775C4.51354 18.7115 4.41924 18.6168 4.35373 18.5029C4.28821 18.3889 4.25379 18.2598 4.25391 18.1284C4.25402 17.9969 4.28867 17.8678 4.35439 17.754C4.97314 16.6853 5.67626 14.7353 5.67626 11.379V10.629Z" stroke="#525A68" stroke-width="2" stroke-linecap="round" stroke-linejoin="round"/>
<path d="M9.40625 18.8789V19.6289C9.40625 20.4246 9.72232 21.1876 10.2849 21.7502C10.8475 22.3128 11.6106 22.6289 12.4062 22.6289C13.2019 22.6289 13.965 22.3128 14.5276 21.7502C15.0902 21.1876 15.4062 20.4246 15.4062 19.6289V18.8789" stroke="#525A68" stroke-width="2" stroke-linecap="round" stroke-linejoin="round"/>
</svg>
