<svg width="25" height="25" viewBox="0 0 25 25" fill="none" xmlns="http://www.w3.org/2000/svg">
<path d="M12.4063 2.33789C10.4779 2.33789 8.59282 2.90972 6.98944 3.98106C5.38607 5.05241 4.13638 6.57515 3.39843 8.35673C2.66047 10.1383 2.46739 12.0987 2.8436 13.99C3.2198 15.8813 4.1484 17.6186 5.51196 18.9822C6.87553 20.3457 8.61281 21.2743 10.5041 21.6505C12.3954 22.0268 14.3558 21.8337 16.1374 21.0957C17.919 20.3578 19.4417 19.1081 20.5131 17.5047C21.5844 15.9013 22.1563 14.0163 22.1563 12.0879C22.1513 9.50355 21.1225 7.02648 19.2951 5.19907C17.4677 3.37167 14.9906 2.34285 12.4063 2.33789ZM14.4125 14.9098C14.5592 15.0441 14.6465 15.2311 14.6553 15.4297C14.6641 15.6284 14.5936 15.8224 14.4594 15.9691C14.3895 16.0464 14.3041 16.108 14.2088 16.15C14.1135 16.192 14.0104 16.2134 13.9063 16.2129C13.7192 16.2111 13.5392 16.1411 13.4 16.016L9.65 12.641C9.57327 12.5708 9.512 12.4853 9.47008 12.3901C9.42816 12.2948 9.40651 12.1919 9.40651 12.0879C9.40651 11.9838 9.42816 11.8809 9.47008 11.7857C9.512 11.6905 9.57327 11.605 9.65 11.5348L13.4 8.15977C13.4722 8.09077 13.5574 8.03688 13.6507 8.00126C13.744 7.96564 13.8435 7.94901 13.9433 7.95235C14.0431 7.95568 14.1412 7.97891 14.2319 8.02067C14.3226 8.06244 14.4041 8.1219 14.4715 8.19556C14.5389 8.26922 14.5909 8.35561 14.6245 8.44964C14.6581 8.54368 14.6726 8.64348 14.6671 8.74319C14.6616 8.8429 14.6363 8.9405 14.5925 9.03028C14.5488 9.12006 14.4876 9.20021 14.4125 9.26602L11.2813 12.0879L14.4125 14.9098Z" fill="#9E9FAC"/>
</svg>
