<svg width="25" height="25" viewBox="0 0 25 25" fill="none" xmlns="http://www.w3.org/2000/svg">
<path d="M12.4062 12.2964C16.9626 12.2964 20.6562 10.2817 20.6562 7.79639C20.6562 5.31111 16.9626 3.29639 12.4062 3.29639C7.8499 3.29639 4.15625 5.31111 4.15625 7.79639C4.15625 10.2817 7.8499 12.2964 12.4062 12.2964Z" stroke="#9E9FAC" stroke-width="2" stroke-linecap="round" stroke-linejoin="round"/>
<path d="M4.15625 7.79639V12.2964C4.15625 14.7808 7.85 16.7964 12.4062 16.7964C16.9625 16.7964 20.6562 14.7808 20.6562 12.2964V7.79639" stroke="#9E9FAC" stroke-width="2" stroke-linecap="round" stroke-linejoin="round"/>
<path d="M4.15625 12.2964V16.7964C4.15625 19.2808 7.85 21.2964 12.4062 21.2964C16.9625 21.2964 20.6562 19.2808 20.6562 16.7964V12.2964" stroke="#9E9FAC" stroke-width="2" stroke-linecap="round" stroke-linejoin="round"/>
</svg>
