<svg width="129" height="20" viewBox="0 0 129 20" fill="none" xmlns="http://www.w3.org/2000/svg">
<path d="M14.0683 1.07064L9.17335 9.08298L4.27835 1.07064H0.15625V19.1048H4.27835V8.61924L8.94148 16.2709H9.40521L14.0683 8.61924V19.1048H18.1904V1.07064H14.0683Z" fill="black"/>
<path d="M33.1153 19.4655C35.7174 19.4655 37.9331 18.5638 39.7622 16.7604C41.5914 14.957 42.4931 12.7413 42.4931 10.0877C42.4931 7.43414 41.5914 5.21851 39.7622 3.41509C37.9331 1.61167 35.7174 0.709961 33.1153 0.709961C30.5133 0.709961 28.2976 1.61167 26.4685 3.41509C24.6393 5.21851 23.7376 7.43414 23.7376 10.0877C23.7376 12.7413 24.6393 14.957 26.4685 16.7604C28.2976 18.5638 30.5133 19.4655 33.1153 19.4655ZM33.1153 15.4465C31.5953 15.4465 30.3587 14.957 29.3539 13.9522C28.3492 12.9474 27.8597 11.6593 27.8597 10.0877C27.8597 8.51619 28.3492 7.22803 29.3539 6.22327C30.3587 5.21851 31.5953 4.72901 33.1153 4.72901C34.6096 4.72901 35.8462 5.21851 36.851 6.22327C37.8558 7.22803 38.371 8.51619 38.371 10.0877C38.371 11.6593 37.8558 12.9474 36.851 13.9522C35.8462 14.957 34.6096 15.4465 33.1153 15.4465Z" fill="black"/>
<path d="M45.7147 1.07064V5.03817H50.3521V19.1048H54.4742V5.03817H59.1115V1.07064H45.7147Z" fill="black"/>
<path d="M73.7203 19.1048L79.5942 1.07064H75.0857L71.0924 14.3387L67.0991 1.07064H62.5906L68.4646 19.1048H73.7203Z" fill="black"/>
<path d="M84.3644 19.1048H88.4865V1.07064H84.3644V19.1048Z" fill="black"/>
<path d="M96.2543 18.2804C97.5167 19.0791 99.0625 19.4655 100.866 19.4655C102.85 19.4655 104.473 18.976 105.709 17.997C106.946 16.9923 107.564 15.6268 107.564 13.9264C107.564 12.5868 107.152 11.479 106.328 10.5772C106.019 10.2166 105.555 9.88164 104.937 9.57248C104.37 9.23756 103.88 9.00569 103.442 8.87687L101.768 8.33585C100.454 7.9494 99.5778 7.58872 99.1398 7.2538C98.7276 6.91888 98.5215 6.53243 98.5215 6.09446C98.5215 5.70801 98.7018 5.37309 99.0368 5.14122C99.3717 4.85783 99.8612 4.72901 100.454 4.72901C101.871 4.72901 102.927 5.42462 103.571 6.81582L107.049 4.78054C105.709 2.07541 103.52 0.709961 100.454 0.709961C98.8049 0.709961 97.3879 1.19946 96.177 2.20422C94.9919 3.20898 94.3994 4.5229 94.3994 6.19751C94.3994 7.82059 94.9404 9.08298 96.0482 9.98469C97.053 10.7318 98.2639 11.2986 99.7066 11.6851C101.124 12.0715 102.103 12.4064 102.644 12.7413C103.185 13.0247 103.442 13.4369 103.442 13.978C103.442 14.957 102.618 15.4465 100.995 15.4465C99.1913 15.4465 97.9289 14.6221 97.2076 12.9474L93.6523 15.0085C94.1933 16.4255 95.0435 17.5075 96.2543 18.2804Z" fill="black"/>
<path d="M128.566 19.1048L122.435 1.07064H117.179L111.047 19.1048H115.556L116.458 16.2709H123.156L124.058 19.1048H128.566ZM119.807 5.7853L121.919 12.4064H117.694L119.807 5.7853Z" fill="black"/>
</svg>
