<svg width="25" height="25" viewBox="0 0 25 25" fill="none" xmlns="http://www.w3.org/2000/svg">
<path d="M19.9062 12.2964V19.7964C19.9062 19.9953 19.8272 20.1861 19.6866 20.3267C19.5459 20.4674 19.3552 20.5464 19.1562 20.5464H4.90625C4.70734 20.5464 4.51657 20.4674 4.37592 20.3267C4.23527 20.1861 4.15625 19.9953 4.15625 19.7964V5.54639C4.15625 5.34747 4.23527 5.15671 4.37592 5.01606C4.51657 4.8754 4.70734 4.79639 4.90625 4.79639H12.4062" stroke="#9E9FAC" stroke-width="2" stroke-linecap="round" stroke-linejoin="round"/>
<path d="M18.7812 8.54639C20.231 8.54639 21.4062 7.37113 21.4062 5.92139C21.4062 4.47164 20.231 3.29639 18.7812 3.29639C17.3315 3.29639 16.1562 4.47164 16.1562 5.92139C16.1562 7.37113 17.3315 8.54639 18.7812 8.54639Z" stroke="#9E9FAC" stroke-width="2" stroke-linecap="round" stroke-linejoin="round"/>
</svg>
