<svg width="25" height="25" viewBox="0 0 25 25" fill="none" xmlns="http://www.w3.org/2000/svg">
<path d="M7.90625 13.7964C9.97732 13.7964 11.6562 12.1175 11.6562 10.0464C11.6562 7.97532 9.97732 6.29639 7.90625 6.29639C5.83518 6.29639 4.15625 7.97532 4.15625 10.0464C4.15625 12.1175 5.83518 13.7964 7.90625 13.7964Z" stroke="#9E9FAC" stroke-width="2" stroke-linecap="round" stroke-linejoin="round"/>
<path d="M14.6562 7.79639H23.6562" stroke="#9E9FAC" stroke-width="2" stroke-linecap="round" stroke-linejoin="round"/>
<path d="M14.6562 12.2964H23.6562" stroke="#9E9FAC" stroke-width="2" stroke-linecap="round" stroke-linejoin="round"/>
<path d="M16.9062 16.7964H23.6562" stroke="#9E9FAC" stroke-width="2" stroke-linecap="round" stroke-linejoin="round"/>
<path d="M2.09375 18.2964C2.4242 17.0058 3.1748 15.8619 4.22722 15.045C5.27963 14.2281 6.57399 13.7847 7.90625 13.7847C9.23851 13.7847 10.5329 14.2281 11.5853 15.045C12.6377 15.8619 13.3883 17.0058 13.7188 18.2964" stroke="#9E9FAC" stroke-width="2" stroke-linecap="round" stroke-linejoin="round"/>
</svg>
